<svg width="20" height="20" viewBox="0 0 20 20" fill="none" xmlns="http://www.w3.org/2000/svg">
<path d="M12 4.46053H12.25V4.21053V2.10526V1.85526H12H8H7.75V2.10526V4.21053V4.46053H8H12ZM2 6.06579H1.75V6.31579V17.8947V18.1447H2H18H18.25V17.8947V6.31579V6.06579H18H2ZM2 19.75C1.04003 19.75 0.250055 18.9374 0.25 17.8948C0.25 17.8948 0.25 17.8948 0.25 17.8947L0.26 6.31601V6.31579C0.26 5.27152 1.04159 4.46053 2 4.46053H6H6.25V4.21053V2.10526C6.25 1.06268 7.04 0.25 8 0.25H12C12.96 0.25 13.75 1.06268 13.75 2.10526V4.21053V4.46053H14H18C18.96 4.46053 19.75 5.2732 19.75 6.31579V17.8947C19.75 18.9373 18.96 19.75 18 19.75H2Z" stroke="#484C56" stroke-width="0.5"/>
</svg>
