<svg width="20" height="20" viewBox="0 0 20 20" fill="none" xmlns="http://www.w3.org/2000/svg">
<g clip-path="url(#clip0_401_199)">
<path d="M13.0977 10.5352C15.9141 10.5352 18.207 8.24219 18.207 5.42578C18.207 2.60937 15.9141 0.3125 13.0977 0.3125C10.2812 0.3125 7.98828 2.60547 7.98828 5.42188C7.98828 8.23828 10.2812 10.5352 13.0977 10.5352ZM13.0977 1.09375C15.4883 1.09375 17.4297 3.03125 17.4297 5.42188C17.4297 7.8125 15.4922 9.75391 13.1016 9.75391C10.7109 9.75391 8.76953 7.81641 8.76953 5.42578C8.76953 5.42578 8.76953 5.42578 8.76953 5.42188C8.77344 3.03516 10.707 1.09766 13.0977 1.09375Z" fill="#484C56"/>
<path d="M13.0977 7.09766C12.7422 7.09766 12.457 6.8086 12.457 6.45703C12.457 6.24219 12.2813 6.06641 12.0664 6.06641C11.8477 6.06641 11.6719 6.23828 11.668 6.45703C11.668 7.09375 12.1094 7.63282 12.6562 7.8125V8.16407C12.6562 8.37891 12.832 8.55469 13.0469 8.55469C13.2617 8.55469 13.4375 8.37891 13.4375 8.16407V7.83594C14.1992 7.64453 14.6602 6.8711 14.4688 6.10938C14.3086 5.48047 13.7422 5.03516 13.0938 5.03516C12.7383 5.03516 12.4531 4.7461 12.457 4.39063C12.4609 4.03516 12.7461 3.75 13.1016 3.75391C13.4531 3.75391 13.7383 4.04297 13.7383 4.39453C13.7383 4.60938 13.9141 4.78516 14.1289 4.78516C14.3398 4.78516 14.5117 4.61328 14.5117 4.39844V4.39453C14.5117 3.74219 14.0703 3.17578 13.4375 3.01563V2.86328C13.4375 2.64844 13.2617 2.47266 13.0469 2.47266C12.832 2.47266 12.6562 2.64844 12.6562 2.86328V3.03906C12.1094 3.22266 11.668 3.76172 11.668 4.39453C11.668 5.17969 12.3047 5.81641 13.0938 5.81641C13.4492 5.81641 13.7344 6.10547 13.7305 6.46094C13.7305 6.8086 13.4492 7.09375 13.0977 7.09766ZM18.9883 12.0742C18.4844 11.4531 17.5742 11.3594 16.9492 11.8633C16.168 12.5 15.0313 13.418 14.293 14.0156C13.7734 14.4336 13.1328 14.6719 12.4648 14.6953L10.4648 14.7617C10.3828 14.7656 10.3086 14.7227 10.2656 14.6563L10.043 14.2734C10.0039 14.2109 10 14.1367 10.0312 14.0703C10.0625 14.0039 10.1211 13.957 10.1914 13.9453L12.2578 13.5547C12.9844 13.418 13.4922 12.7305 13.4102 11.9844C13.332 11.2656 12.7227 10.7266 12.0039 10.7266C11.9844 10.7266 11.9609 10.7266 11.9336 10.7266L9.17188 10.6133C8.07031 10.5742 7.125 10.7852 6.01953 11.3203L4.57422 12.0195C4.37109 11.5977 3.94531 11.3281 3.47656 11.3281H1.87891C1.21094 11.3242 0.667969 11.8633 0.664062 12.5313V18.4805C0.667969 19.1484 1.21094 19.6875 1.87891 19.6875H3.47656C4.14453 19.6875 4.68359 19.1484 4.6875 18.4805V18.0781L6.22266 17.7969C6.71875 17.7227 7.03125 17.6953 7.55859 17.7188L11.7578 17.9141C13.2695 17.9805 14.75 17.4805 15.9102 16.5117L18.8203 14.0977L18.8242 14.0938C19.4062 13.5977 19.4922 12.7266 19.0195 12.125C19.0117 12.1055 19 12.0898 18.9883 12.0742ZM3.90625 18.4805C3.90625 18.7149 3.71484 18.9063 3.48047 18.9063H1.87109C1.63672 18.9063 1.44531 18.7149 1.44531 18.4805V12.5352C1.44531 12.3008 1.63672 12.1094 1.87109 12.1094H3.48047C3.71484 12.1094 3.90625 12.3008 3.90625 12.5352V18.4805ZM18.3203 13.4961L15.4141 15.9063C14.4023 16.75 13.1094 17.1836 11.793 17.1289L7.59375 16.9336C7.00391 16.9063 6.64453 16.9414 6.10156 17.0195C6.09766 17.0195 6.09375 17.0195 6.08984 17.0234L4.6875 17.2813V12.8281L6.35937 12.0195C7.34375 11.543 8.17578 11.3555 9.14062 11.3906L11.9219 11.5039C11.9375 11.5039 11.957 11.5039 11.9727 11.5039C11.9766 11.5039 11.9922 11.5039 12.0039 11.5039C12.3242 11.5078 12.5977 11.7461 12.6367 12.0664C12.6758 12.4024 12.4492 12.7149 12.1172 12.7813L10.0508 13.1719C9.50781 13.2734 9.15234 13.8008 9.25391 14.3438C9.27734 14.457 9.31641 14.5664 9.375 14.6641L9.59766 15.043C9.78516 15.3594 10.1289 15.5469 10.4961 15.5352L12.4961 15.4688C13.332 15.4375 14.1367 15.1367 14.7891 14.6172C15.5273 14.0195 16.668 13.1016 17.4492 12.4648C17.7305 12.2461 18.1328 12.2813 18.3711 12.5469C18.3789 12.5625 18.3906 12.5781 18.4023 12.5938C18.625 12.8633 18.5898 13.2695 18.3203 13.4961Z" fill="#484C56"/>
</g>
<defs>
<clipPath id="clip0_401_199">
<rect width="20" height="20" fill="white"/>
</clipPath>
</defs>
</svg>
