<svg width="20" height="20" viewBox="0 0 20 20" fill="none" xmlns="http://www.w3.org/2000/svg">
<g clip-path="url(#clip0_401_220)">
<path d="M5.20002 14.7999H3.20002V10.3999H9.60002V14.7999H7.60002V19.5999H12.4V14.7999H10.4V10.3999H16.8V14.7999H14.8V19.5999H19.6V14.7999H17.6V9.5999H10.4V5.1999H13.2V0.399902H6.80002V5.1999H9.60002V9.5999H2.40002V14.7999H0.400024V19.5999H5.20002V14.7999ZM11.6 18.7999H8.40002V15.5999H11.6V18.7999ZM18.8 18.7999H15.6V15.5999H18.8V18.7999ZM7.60002 1.1999H12.4V4.3999H7.60002V1.1999ZM4.40002 18.7999H1.20002V15.5999H4.40002V18.7999Z" fill="#484C56"/>
</g>
<defs>
<clipPath id="clip0_401_220">
<rect width="20" height="20" fill="white"/>
</clipPath>
</defs>
</svg>
