<svg width="15" height="20" viewBox="0 0 15 20" fill="none" xmlns="http://www.w3.org/2000/svg">
<mask id="path-1-inside-1_401_213" fill="white">
<path fill-rule="evenodd" clip-rule="evenodd" d="M3.91951 4.11699C3.68954 3.73704 3.49956 3.21211 3.49956 2.5022C3.49956 1.88228 3.79452 1.33734 4.24947 0.912397C4.86939 0.337469 5.78927 0.00251118 6.49918 0.00251118C7.04411 0.00251118 7.62404 0.132495 8.18397 0.267478C8.65891 0.382464 9.11385 0.502448 9.49881 0.502448C9.98374 0.502448 11.3386 0.0275081 11.3386 0.0275081C11.4786 -0.0224856 11.6335 -0.00248825 11.7585 0.0725023C11.8835 0.147493 11.9685 0.277477 11.9935 0.422458C12.2035 1.7223 11.9585 2.96214 11.0536 4.107C11.2386 4.18199 11.4136 4.29697 11.5585 4.44195C11.8385 4.72192 11.9985 5.10687 11.9985 5.50182C11.9985 6.33172 11.3286 7.00163 10.4987 7.00163H9.73378C9.5338 7.2216 9.30383 7.41658 9.04886 7.57156C9.21884 8.0215 9.45381 8.35146 9.75877 8.57643L13.9033 10.6462C14.5732 10.9811 14.9981 11.671 14.9981 12.421V18.0103C14.9981 19.1101 14.1082 20 13.0084 20H1.98975C0.889888 20 0 19.1101 0 18.0103V12.421C0 11.671 0.424946 10.9811 1.09486 10.6462L5.23934 8.57643C5.5393 8.35146 5.77427 8.0215 5.94925 7.57156C5.69428 7.41658 5.46431 7.2266 5.26434 7.00163H4.49943C3.66954 7.00163 2.99962 6.33172 2.99962 5.50182C2.99962 5.10187 3.1596 4.72192 3.43957 4.44195C3.57955 4.30197 3.74453 4.19198 3.91951 4.11699ZM6.99912 10.3112L5.49931 9.56131L1.54481 11.5411C1.20985 11.706 0.999874 12.046 0.999874 12.421V18.0103C0.999874 18.5602 1.44482 19.0001 1.98975 19.0001H4.08449C4.02949 18.8451 3.9995 18.6752 3.9995 18.5002V17.5003H2.99962C2.72466 17.5003 2.49969 17.2753 2.49969 17.0004V14.5007C2.49969 14.2257 2.72466 14.0008 2.99962 14.0008C3.27459 14.0008 3.49956 14.2257 3.49956 14.5007V16.5004H3.9995V13.5008C3.9995 12.8359 4.26446 12.201 4.7294 11.731C5.19935 11.2611 5.83427 11.0011 6.49918 11.0011H6.99912V10.3112ZM6.49918 12.001H8.49893C8.89888 12.001 9.27883 12.161 9.5588 12.4409C9.83876 12.7209 9.99874 13.1059 9.99874 13.5008V18.5002C9.99874 18.7752 9.77377 19.0001 9.49881 19.0001H5.49931C5.22434 19.0001 4.99937 18.7752 4.99937 18.5002V13.5008C4.99937 13.1009 5.15935 12.7209 5.43932 12.4409C5.71928 12.161 6.10423 12.001 6.49918 12.001ZM7.99899 10.3112V11.0011H8.49893C9.16385 11.0011 9.79877 11.2661 10.2687 11.731C10.7386 12.196 10.9986 12.8359 10.9986 13.5008V16.5004H11.4986V14.5007C11.4986 14.2257 11.7235 14.0008 11.9985 14.0008C12.2735 14.0008 12.4984 14.2257 12.4984 14.5007V17.0004C12.4984 17.2753 12.2735 17.5003 11.9985 17.5003H10.9986V18.5002C10.9986 18.6752 10.9686 18.8451 10.9136 19.0001H13.0084C13.5583 19.0001 13.9982 18.5552 13.9982 18.0103V12.421C13.9982 12.046 13.7883 11.706 13.4533 11.5411L9.49881 9.56131L7.99899 10.3112ZM6.99912 13.5258C6.75915 13.5758 6.53918 13.6908 6.3642 13.8658C6.12923 14.1007 5.99925 14.4157 5.99925 14.7507C5.99925 15.4406 6.55918 16.0005 7.24909 16.0005H7.74903C7.81402 16.0005 7.87901 16.0255 7.924 16.0755C7.969 16.1205 7.99899 16.1855 7.99899 16.2505C7.99899 16.3155 7.974 16.3805 7.924 16.4254C7.87901 16.4704 7.81402 16.5004 7.74903 16.5004H6.49918C6.22422 16.5004 5.99925 16.7254 5.99925 17.0004C5.99925 17.2753 6.22422 17.5003 6.49918 17.5003H6.99912V18.0003C6.99912 18.2752 7.22409 18.5002 7.49906 18.5002C7.77402 18.5002 7.99899 18.2752 7.99899 18.0003V17.4753C8.23896 17.4253 8.45894 17.3103 8.63391 17.1354C8.86889 16.9004 8.99887 16.5854 8.99887 16.2505C8.99887 15.9155 8.86889 15.6006 8.63391 15.3656C8.39894 15.1306 8.08398 15.0006 7.74903 15.0006H7.24909C7.1841 15.0006 7.1191 14.9756 7.07411 14.9256C7.02912 14.8806 6.99912 14.8156 6.99912 14.7507C6.99912 14.6857 7.02412 14.6207 7.07411 14.5757C7.1191 14.5307 7.1841 14.5007 7.24909 14.5007H8.49893C8.7739 14.5007 8.99887 14.2757 8.99887 14.0008C8.99887 13.7258 8.7739 13.5008 8.49893 13.5008H7.99899V13.0009C7.99899 12.7259 7.77402 12.5009 7.49906 12.5009C7.22409 12.5009 6.99912 12.7259 6.99912 13.0009V13.5258ZM8.11898 7.93651C7.919 7.98151 7.70903 8.00151 7.49906 8.00151C7.28908 8.00151 7.07911 7.98151 6.87913 7.93651C6.73915 8.30647 6.56417 8.61143 6.3592 8.8714L7.50406 9.44132L8.64891 8.8714C8.44394 8.61643 8.26896 8.30647 8.12898 7.93651H8.11898ZM9.09886 6.19673C9.34882 5.86177 9.49381 5.45183 9.49381 5.00188V4.99188C7.99399 4.91689 7.54405 4.48695 6.62917 4.097C6.27921 4.45195 5.90426 4.72692 5.49431 4.8869V5.00688C5.49431 5.45683 5.63929 5.86677 5.88926 6.20173C5.88926 6.20173 5.89426 6.20673 5.89926 6.21173C6.26421 6.69667 6.84414 7.00663 7.49406 7.00663C8.14398 7.00663 8.7239 6.69667 9.08886 6.21173C9.08886 6.21173 9.09386 6.20673 9.09886 6.20173V6.19673ZM10.4937 5.00188C10.4937 5.35184 10.4337 5.6868 10.3237 6.00176H10.4937C10.7686 6.00176 10.9936 5.77679 10.9936 5.50182C10.9936 5.36684 10.9386 5.24185 10.8486 5.14686C10.7536 5.05188 10.6287 5.00188 10.4937 5.00188ZM4.49443 5.00188C4.35945 5.00188 4.23447 5.05688 4.13948 5.14686C4.04449 5.24185 3.9945 5.36684 3.9945 5.50182C3.9945 5.77679 4.21947 6.00176 4.49443 6.00176H4.66441C4.55443 5.6868 4.49443 5.35184 4.49443 5.00188ZM9.79877 4.00201C10.7037 3.12212 11.0786 2.17224 11.0536 1.16237C10.5437 1.31235 9.83376 1.50232 9.49381 1.50232C9.04386 1.50232 8.50393 1.37234 7.944 1.23736C7.46406 1.12237 6.96412 1.00239 6.49418 1.00239C5.99925 1.00239 5.35933 1.24236 4.92438 1.6473C4.67441 1.87728 4.49443 2.16224 4.49443 2.5022C4.49443 3.35209 4.88939 3.79204 5.09436 3.96701C5.47931 3.84203 5.80427 3.53207 6.11923 3.17711C6.25421 3.02213 6.47419 2.96714 6.66916 3.03713C7.76402 3.43708 8.06899 3.96701 9.79877 4.00701V4.00201Z"/>
</mask>
<path fill-rule="evenodd" clip-rule="evenodd" d="M3.91951 4.11699C3.68954 3.73704 3.49956 3.21211 3.49956 2.5022C3.49956 1.88228 3.79452 1.33734 4.24947 0.912397C4.86939 0.337469 5.78927 0.00251118 6.49918 0.00251118C7.04411 0.00251118 7.62404 0.132495 8.18397 0.267478C8.65891 0.382464 9.11385 0.502448 9.49881 0.502448C9.98374 0.502448 11.3386 0.0275081 11.3386 0.0275081C11.4786 -0.0224856 11.6335 -0.00248825 11.7585 0.0725023C11.8835 0.147493 11.9685 0.277477 11.9935 0.422458C12.2035 1.7223 11.9585 2.96214 11.0536 4.107C11.2386 4.18199 11.4136 4.29697 11.5585 4.44195C11.8385 4.72192 11.9985 5.10687 11.9985 5.50182C11.9985 6.33172 11.3286 7.00163 10.4987 7.00163H9.73378C9.5338 7.2216 9.30383 7.41658 9.04886 7.57156C9.21884 8.0215 9.45381 8.35146 9.75877 8.57643L13.9033 10.6462C14.5732 10.9811 14.9981 11.671 14.9981 12.421V18.0103C14.9981 19.1101 14.1082 20 13.0084 20H1.98975C0.889888 20 0 19.1101 0 18.0103V12.421C0 11.671 0.424946 10.9811 1.09486 10.6462L5.23934 8.57643C5.5393 8.35146 5.77427 8.0215 5.94925 7.57156C5.69428 7.41658 5.46431 7.2266 5.26434 7.00163H4.49943C3.66954 7.00163 2.99962 6.33172 2.99962 5.50182C2.99962 5.10187 3.1596 4.72192 3.43957 4.44195C3.57955 4.30197 3.74453 4.19198 3.91951 4.11699ZM6.99912 10.3112L5.49931 9.56131L1.54481 11.5411C1.20985 11.706 0.999874 12.046 0.999874 12.421V18.0103C0.999874 18.5602 1.44482 19.0001 1.98975 19.0001H4.08449C4.02949 18.8451 3.9995 18.6752 3.9995 18.5002V17.5003H2.99962C2.72466 17.5003 2.49969 17.2753 2.49969 17.0004V14.5007C2.49969 14.2257 2.72466 14.0008 2.99962 14.0008C3.27459 14.0008 3.49956 14.2257 3.49956 14.5007V16.5004H3.9995V13.5008C3.9995 12.8359 4.26446 12.201 4.7294 11.731C5.19935 11.2611 5.83427 11.0011 6.49918 11.0011H6.99912V10.3112ZM6.49918 12.001H8.49893C8.89888 12.001 9.27883 12.161 9.5588 12.4409C9.83876 12.7209 9.99874 13.1059 9.99874 13.5008V18.5002C9.99874 18.7752 9.77377 19.0001 9.49881 19.0001H5.49931C5.22434 19.0001 4.99937 18.7752 4.99937 18.5002V13.5008C4.99937 13.1009 5.15935 12.7209 5.43932 12.4409C5.71928 12.161 6.10423 12.001 6.49918 12.001ZM7.99899 10.3112V11.0011H8.49893C9.16385 11.0011 9.79877 11.2661 10.2687 11.731C10.7386 12.196 10.9986 12.8359 10.9986 13.5008V16.5004H11.4986V14.5007C11.4986 14.2257 11.7235 14.0008 11.9985 14.0008C12.2735 14.0008 12.4984 14.2257 12.4984 14.5007V17.0004C12.4984 17.2753 12.2735 17.5003 11.9985 17.5003H10.9986V18.5002C10.9986 18.6752 10.9686 18.8451 10.9136 19.0001H13.0084C13.5583 19.0001 13.9982 18.5552 13.9982 18.0103V12.421C13.9982 12.046 13.7883 11.706 13.4533 11.5411L9.49881 9.56131L7.99899 10.3112ZM6.99912 13.5258C6.75915 13.5758 6.53918 13.6908 6.3642 13.8658C6.12923 14.1007 5.99925 14.4157 5.99925 14.7507C5.99925 15.4406 6.55918 16.0005 7.24909 16.0005H7.74903C7.81402 16.0005 7.87901 16.0255 7.924 16.0755C7.969 16.1205 7.99899 16.1855 7.99899 16.2505C7.99899 16.3155 7.974 16.3805 7.924 16.4254C7.87901 16.4704 7.81402 16.5004 7.74903 16.5004H6.49918C6.22422 16.5004 5.99925 16.7254 5.99925 17.0004C5.99925 17.2753 6.22422 17.5003 6.49918 17.5003H6.99912V18.0003C6.99912 18.2752 7.22409 18.5002 7.49906 18.5002C7.77402 18.5002 7.99899 18.2752 7.99899 18.0003V17.4753C8.23896 17.4253 8.45894 17.3103 8.63391 17.1354C8.86889 16.9004 8.99887 16.5854 8.99887 16.2505C8.99887 15.9155 8.86889 15.6006 8.63391 15.3656C8.39894 15.1306 8.08398 15.0006 7.74903 15.0006H7.24909C7.1841 15.0006 7.1191 14.9756 7.07411 14.9256C7.02912 14.8806 6.99912 14.8156 6.99912 14.7507C6.99912 14.6857 7.02412 14.6207 7.07411 14.5757C7.1191 14.5307 7.1841 14.5007 7.24909 14.5007H8.49893C8.7739 14.5007 8.99887 14.2757 8.99887 14.0008C8.99887 13.7258 8.7739 13.5008 8.49893 13.5008H7.99899V13.0009C7.99899 12.7259 7.77402 12.5009 7.49906 12.5009C7.22409 12.5009 6.99912 12.7259 6.99912 13.0009V13.5258ZM8.11898 7.93651C7.919 7.98151 7.70903 8.00151 7.49906 8.00151C7.28908 8.00151 7.07911 7.98151 6.87913 7.93651C6.73915 8.30647 6.56417 8.61143 6.3592 8.8714L7.50406 9.44132L8.64891 8.8714C8.44394 8.61643 8.26896 8.30647 8.12898 7.93651H8.11898ZM9.09886 6.19673C9.34882 5.86177 9.49381 5.45183 9.49381 5.00188V4.99188C7.99399 4.91689 7.54405 4.48695 6.62917 4.097C6.27921 4.45195 5.90426 4.72692 5.49431 4.8869V5.00688C5.49431 5.45683 5.63929 5.86677 5.88926 6.20173C5.88926 6.20173 5.89426 6.20673 5.89926 6.21173C6.26421 6.69667 6.84414 7.00663 7.49406 7.00663C8.14398 7.00663 8.7239 6.69667 9.08886 6.21173C9.08886 6.21173 9.09386 6.20673 9.09886 6.20173V6.19673ZM10.4937 5.00188C10.4937 5.35184 10.4337 5.6868 10.3237 6.00176H10.4937C10.7686 6.00176 10.9936 5.77679 10.9936 5.50182C10.9936 5.36684 10.9386 5.24185 10.8486 5.14686C10.7536 5.05188 10.6287 5.00188 10.4937 5.00188ZM4.49443 5.00188C4.35945 5.00188 4.23447 5.05688 4.13948 5.14686C4.04449 5.24185 3.9945 5.36684 3.9945 5.50182C3.9945 5.77679 4.21947 6.00176 4.49443 6.00176H4.66441C4.55443 5.6868 4.49443 5.35184 4.49443 5.00188ZM9.79877 4.00201C10.7037 3.12212 11.0786 2.17224 11.0536 1.16237C10.5437 1.31235 9.83376 1.50232 9.49381 1.50232C9.04386 1.50232 8.50393 1.37234 7.944 1.23736C7.46406 1.12237 6.96412 1.00239 6.49418 1.00239C5.99925 1.00239 5.35933 1.24236 4.92438 1.6473C4.67441 1.87728 4.49443 2.16224 4.49443 2.5022C4.49443 3.35209 4.88939 3.79204 5.09436 3.96701C5.47931 3.84203 5.80427 3.53207 6.11923 3.17711C6.25421 3.02213 6.47419 2.96714 6.66916 3.03713C7.76402 3.43708 8.06899 3.96701 9.79877 4.00701V4.00201Z" stroke="#484C56" mask="url(#path-1-inside-1_401_213)"/>
</svg>
